<?xml version="1.0" encoding="UTF-8" standalone="no"?>
<!DOCTYPE svg PUBLIC "-//W3C//DTD SVG 1.0//EN" "http://www.w3.org/TR/2001/PR-SVG-20010719/DTD/svg10.dtd">
<svg width="48cm" height="15cm" viewBox="48 74 947 296" xmlns="http://www.w3.org/2000/svg" xmlns:xlink="http://www.w3.org/1999/xlink">
  <g>
    <rect style="fill: #ffffff" x="48" y="168" width="226.2" height="18"/>
    <rect style="fill: none; fill-opacity:0; stroke-width: 2; stroke: #000000" x="48" y="168" width="226.2" height="18"/>
    <text font-size="11.2" style="fill: #000000;text-anchor:middle;font-family:sans-serif;font-style:normal;font-weight:700" x="161.1" y="182">persona</text>
    <rect style="fill: #ffffff" x="48" y="186" width="226.2" height="68"/>
    <rect style="fill: none; fill-opacity:0; stroke-width: 2; stroke: #000000" x="48" y="186" width="226.2" height="68"/>
    <polygon style="fill: #000000" points="51,196 53,199 55,196 53,193 "/>
    <text font-size="12.8" style="fill: #000000;text-anchor:start;font-family:monospace;font-style:normal;font-weight:normal" x="57" y="202">id</text>
    <text font-size="12.8" style="fill: #000000;text-anchor:start;font-family:monospace;font-style:normal;font-weight:normal" x="174.8" y="202">int(11)</text>
    <line style="fill: none; fill-opacity:0; stroke-width: 1; stroke: #000000" x1="57" y1="203.6" x2="228.7" y2="203.6"/>
    <ellipse style="fill: #000000" cx="53" cy="212" rx="2" ry="2"/>
    <text font-size="12.8" style="fill: #000000;text-anchor:start;font-family:monospace;font-style:normal;font-weight:normal" x="57" y="218">identificacion</text>
    <text font-size="12.8" style="fill: #000000;text-anchor:start;font-family:monospace;font-style:normal;font-weight:normal" x="174.8" y="218">varchar(20)</text>
    <ellipse style="fill: none; fill-opacity:0; stroke-width: 0.2; stroke: #000000" cx="53" cy="228" rx="2" ry="2"/>
    <text font-size="12.8" style="fill: #000000;text-anchor:start;font-family:monospace;font-style:normal;font-weight:normal" x="57" y="234">nombres</text>
    <text font-size="12.8" style="fill: #000000;text-anchor:start;font-family:monospace;font-style:normal;font-weight:normal" x="174.8" y="234">varchar(400)</text>
    <ellipse style="fill: none; fill-opacity:0; stroke-width: 0.2; stroke: #000000" cx="53" cy="244" rx="2" ry="2"/>
    <text font-size="12.8" style="fill: #000000;text-anchor:start;font-family:monospace;font-style:normal;font-weight:normal" x="57" y="250">apellidos</text>
    <text font-size="12.8" style="fill: #000000;text-anchor:start;font-family:monospace;font-style:normal;font-weight:normal" x="174.8" y="250">varchar(400)</text>
  </g>
  <g>
    <rect style="fill: #ffffff" x="830" y="74" width="164.6" height="18"/>
    <rect style="fill: none; fill-opacity:0; stroke-width: 2; stroke: #000000" x="830" y="74" width="164.6" height="18"/>
    <text font-size="11.2" style="fill: #000000;text-anchor:middle;font-family:sans-serif;font-style:normal;font-weight:700" x="912.3" y="88">categoria</text>
    <rect style="fill: #ffffff" x="830" y="92" width="164.6" height="36"/>
    <rect style="fill: none; fill-opacity:0; stroke-width: 2; stroke: #000000" x="830" y="92" width="164.6" height="36"/>
    <polygon style="fill: #000000" points="833,102 835,105 837,102 835,99 "/>
    <text font-size="12.8" style="fill: #000000;text-anchor:start;font-family:monospace;font-style:normal;font-weight:normal" x="839" y="108">id</text>
    <text font-size="12.8" style="fill: #000000;text-anchor:start;font-family:monospace;font-style:normal;font-weight:normal" x="895.2" y="108">int(11)</text>
    <line style="fill: none; fill-opacity:0; stroke-width: 1; stroke: #000000" x1="839" y1="109.6" x2="949.1" y2="109.6"/>
    <ellipse style="fill: #000000" cx="835" cy="118" rx="2" ry="2"/>
    <text font-size="12.8" style="fill: #000000;text-anchor:start;font-family:monospace;font-style:normal;font-weight:normal" x="839" y="124">nombre</text>
    <text font-size="12.8" style="fill: #000000;text-anchor:start;font-family:monospace;font-style:normal;font-weight:normal" x="895.2" y="124">varchar(500)</text>
  </g>
  <g>
    <rect style="fill: #ffffff" x="460" y="74" width="210.8" height="18"/>
    <rect style="fill: none; fill-opacity:0; stroke-width: 2; stroke: #000000" x="460" y="74" width="210.8" height="18"/>
    <text font-size="11.2" style="fill: #000000;text-anchor:middle;font-family:sans-serif;font-style:normal;font-weight:700" x="565.4" y="88">recurso</text>
    <rect style="fill: #ffffff" x="460" y="92" width="210.8" height="116"/>
    <rect style="fill: none; fill-opacity:0; stroke-width: 2; stroke: #000000" x="460" y="92" width="210.8" height="116"/>
    <polygon style="fill: #000000" points="463,102 465,105 467,102 465,99 "/>
    <text font-size="12.8" style="fill: #000000;text-anchor:start;font-family:monospace;font-style:normal;font-weight:normal" x="469" y="108">id</text>
    <text font-size="12.8" style="fill: #000000;text-anchor:start;font-family:monospace;font-style:normal;font-weight:normal" x="563.7" y="108">int(11)</text>
    <line style="fill: none; fill-opacity:0; stroke-width: 1; stroke: #000000" x1="469" y1="109.6" x2="617.6" y2="109.6"/>
    <ellipse style="fill: #000000" cx="465" cy="118" rx="2" ry="2"/>
    <text font-size="12.8" style="fill: #000000;text-anchor:start;font-family:monospace;font-style:normal;font-weight:normal" x="469" y="124">codigo</text>
    <text font-size="12.8" style="fill: #000000;text-anchor:start;font-family:monospace;font-style:normal;font-weight:normal" x="563.7" y="124">varchar(50)</text>
    <ellipse style="fill: #000000" cx="465" cy="134" rx="2" ry="2"/>
    <text font-size="12.8" style="fill: #000000;text-anchor:start;font-family:monospace;font-style:normal;font-weight:normal" x="469" y="140">categoria</text>
    <text font-size="12.8" style="fill: #000000;text-anchor:start;font-family:monospace;font-style:normal;font-weight:normal" x="563.7" y="140">int(11)</text>
    <ellipse style="fill: none; fill-opacity:0; stroke-width: 0.2; stroke: #000000" cx="465" cy="150" rx="2" ry="2"/>
    <text font-size="12.8" style="fill: #000000;text-anchor:start;font-family:monospace;font-style:normal;font-weight:normal" x="469" y="156">nombre</text>
    <text font-size="12.8" style="fill: #000000;text-anchor:start;font-family:monospace;font-style:normal;font-weight:normal" x="563.7" y="156">varchar(1000)</text>
    <ellipse style="fill: none; fill-opacity:0; stroke-width: 0.2; stroke: #000000" cx="465" cy="166" rx="2" ry="2"/>
    <text font-size="12.8" style="fill: #000000;text-anchor:start;font-family:monospace;font-style:normal;font-weight:normal" x="469" y="172">marca</text>
    <text font-size="12.8" style="fill: #000000;text-anchor:start;font-family:monospace;font-style:normal;font-weight:normal" x="563.7" y="172">int(11)</text>
    <ellipse style="fill: none; fill-opacity:0; stroke-width: 0.2; stroke: #000000" cx="465" cy="182" rx="2" ry="2"/>
    <text font-size="12.8" style="fill: #000000;text-anchor:start;font-family:monospace;font-style:normal;font-weight:normal" x="469" y="188">serie</text>
    <text font-size="12.8" style="fill: #000000;text-anchor:start;font-family:monospace;font-style:normal;font-weight:normal" x="563.7" y="188">varchar(100)</text>
    <ellipse style="fill: #000000" cx="465" cy="198" rx="2" ry="2"/>
    <text font-size="12.8" style="fill: #000000;text-anchor:start;font-family:monospace;font-style:normal;font-weight:normal" x="469" y="204">es_asignado</text>
    <text font-size="12.8" style="fill: #000000;text-anchor:start;font-family:monospace;font-style:normal;font-weight:normal" x="563.7" y="204">int(11)</text>
  </g>
  <g>
    <rect style="fill: #ffffff" x="830" y="140" width="164.6" height="18"/>
    <rect style="fill: none; fill-opacity:0; stroke-width: 2; stroke: #000000" x="830" y="140" width="164.6" height="18"/>
    <text font-size="11.2" style="fill: #000000;text-anchor:middle;font-family:sans-serif;font-style:normal;font-weight:700" x="912.3" y="154">marca</text>
    <rect style="fill: #ffffff" x="830" y="158" width="164.6" height="36"/>
    <rect style="fill: none; fill-opacity:0; stroke-width: 2; stroke: #000000" x="830" y="158" width="164.6" height="36"/>
    <polygon style="fill: #000000" points="833,168 835,171 837,168 835,165 "/>
    <text font-size="12.8" style="fill: #000000;text-anchor:start;font-family:monospace;font-style:normal;font-weight:normal" x="839" y="174">id</text>
    <text font-size="12.8" style="fill: #000000;text-anchor:start;font-family:monospace;font-style:normal;font-weight:normal" x="895.2" y="174">int(11)</text>
    <line style="fill: none; fill-opacity:0; stroke-width: 1; stroke: #000000" x1="839" y1="175.6" x2="949.1" y2="175.6"/>
    <ellipse style="fill: none; fill-opacity:0; stroke-width: 0.2; stroke: #000000" cx="835" cy="184" rx="2" ry="2"/>
    <text font-size="12.8" style="fill: #000000;text-anchor:start;font-family:monospace;font-style:normal;font-weight:normal" x="839" y="190">nombre</text>
    <text font-size="12.8" style="fill: #000000;text-anchor:start;font-family:monospace;font-style:normal;font-weight:normal" x="895.2" y="190">varchar(500)</text>
  </g>
  <g>
    <rect style="fill: #ffffff" x="356" y="268" width="241.6" height="18"/>
    <rect style="fill: none; fill-opacity:0; stroke-width: 2; stroke: #000000" x="356" y="268" width="241.6" height="18"/>
    <text font-size="11.2" style="fill: #000000;text-anchor:middle;font-family:sans-serif;font-style:normal;font-weight:700" x="476.8" y="282">asignado</text>
    <rect style="fill: #ffffff" x="356" y="286" width="241.6" height="84"/>
    <rect style="fill: none; fill-opacity:0; stroke-width: 2; stroke: #000000" x="356" y="286" width="241.6" height="84"/>
    <polygon style="fill: #000000" points="359,296 361,299 363,296 361,293 "/>
    <text font-size="12.8" style="fill: #000000;text-anchor:start;font-family:monospace;font-style:normal;font-weight:normal" x="365" y="302">id</text>
    <text font-size="12.8" style="fill: #000000;text-anchor:start;font-family:monospace;font-style:normal;font-weight:normal" x="529" y="302">int(11)</text>
    <line style="fill: none; fill-opacity:0; stroke-width: 1; stroke: #000000" x1="365" y1="303.6" x2="582.9" y2="303.6"/>
    <ellipse style="fill: #000000" cx="361" cy="312" rx="2" ry="2"/>
    <text font-size="12.8" style="fill: #000000;text-anchor:start;font-family:monospace;font-style:normal;font-weight:normal" x="365" y="318">persona</text>
    <text font-size="12.8" style="fill: #000000;text-anchor:start;font-family:monospace;font-style:normal;font-weight:normal" x="529" y="318">int(11)</text>
    <ellipse style="fill: #000000" cx="361" cy="328" rx="2" ry="2"/>
    <text font-size="12.8" style="fill: #000000;text-anchor:start;font-family:monospace;font-style:normal;font-weight:normal" x="365" y="334">recurso</text>
    <text font-size="12.8" style="fill: #000000;text-anchor:start;font-family:monospace;font-style:normal;font-weight:normal" x="529" y="334">int(11)</text>
    <ellipse style="fill: #000000" cx="361" cy="344" rx="2" ry="2"/>
    <text font-size="12.8" style="fill: #000000;text-anchor:start;font-family:monospace;font-style:normal;font-weight:normal" x="365" y="350">fecha_asignacion</text>
    <text font-size="12.8" style="fill: #000000;text-anchor:start;font-family:monospace;font-style:normal;font-weight:normal" x="529" y="350">datetime</text>
    <ellipse style="fill: #000000" cx="361" cy="360" rx="2" ry="2"/>
    <text font-size="12.8" style="fill: #000000;text-anchor:start;font-family:monospace;font-style:normal;font-weight:normal" x="365" y="366">fecha_desvinculacion</text>
    <text font-size="12.8" style="fill: #000000;text-anchor:start;font-family:monospace;font-style:normal;font-weight:normal" x="529" y="366">datetime</text>
  </g>
  <g>
    <polyline style="fill: none; fill-opacity:0; stroke-width: 2; stroke: #000000" points="274.2,196 315.1,196 315.1,312 346.264,312 "/>
    <polygon style="fill: #000000" points="353.764,312 343.764,317 346.264,312 343.764,307 "/>
    <polygon style="fill: none; fill-opacity:0; stroke-width: 2; stroke: #000000" points="353.764,312 343.764,317 346.264,312 343.764,307 "/>
    <text font-size="9.6" style="fill: #000000;text-anchor:start;font-family:monospace;font-style:normal;font-weight:normal" x="278.2" y="192">1</text>
    <text font-size="9.6" style="fill: #000000;text-anchor:end;font-family:monospace;font-style:normal;font-weight:normal" x="352" y="308">n</text>
  </g>
  <g>
    <polyline style="fill: none; fill-opacity:0; stroke-width: 2; stroke: #000000" points="460,102 440,102 440,215 617.6,215 617.6,328 607.336,328 "/>
    <polygon style="fill: #000000" points="599.836,328 609.836,323 607.336,328 609.836,333 "/>
    <polygon style="fill: none; fill-opacity:0; stroke-width: 2; stroke: #000000" points="599.836,328 609.836,323 607.336,328 609.836,333 "/>
    <text font-size="9.6" style="fill: #000000;text-anchor:end;font-family:monospace;font-style:normal;font-weight:normal" x="456" y="98">1</text>
    <text font-size="9.6" style="fill: #000000;text-anchor:start;font-family:monospace;font-style:normal;font-weight:normal" x="601.6" y="324">n</text>
  </g>
  <g>
    <polyline style="fill: none; fill-opacity:0; stroke-width: 2; stroke: #000000" points="830,102 750.4,102 750.4,134 680.536,134 "/>
    <polygon style="fill: #000000" points="673.036,134 683.036,129 680.536,134 683.036,139 "/>
    <polygon style="fill: none; fill-opacity:0; stroke-width: 2; stroke: #000000" points="673.036,134 683.036,129 680.536,134 683.036,139 "/>
    <text font-size="9.6" style="fill: #000000;text-anchor:end;font-family:monospace;font-style:normal;font-weight:normal" x="826" y="98">1</text>
    <text font-size="9.6" style="fill: #000000;text-anchor:start;font-family:monospace;font-style:normal;font-weight:normal" x="674.8" y="130">n</text>
  </g>
  <g>
    <polyline style="fill: none; fill-opacity:0; stroke-width: 2; stroke: #000000" points="830,168 750.4,168 750.4,166 680.536,166 "/>
    <polygon style="fill: #000000" points="673.036,166 683.036,161 680.536,166 683.036,171 "/>
    <polygon style="fill: none; fill-opacity:0; stroke-width: 2; stroke: #000000" points="673.036,166 683.036,161 680.536,166 683.036,171 "/>
    <text font-size="9.6" style="fill: #000000;text-anchor:end;font-family:monospace;font-style:normal;font-weight:normal" x="826" y="164">1</text>
    <text font-size="9.6" style="fill: #000000;text-anchor:start;font-family:monospace;font-style:normal;font-weight:normal" x="674.8" y="162">n</text>
  </g>
</svg>
